Normalized EMG Linear Envelopes
nRows=191
nColumns=4

endheader
time	 med_gas_r	  soleus_r	 tib_ant_r	
4.35758	  0.084663	  0.107634	  0.028523	
4.39085	  0.082518	  0.105302	  0.028911	
4.42411	  0.081074	  0.102916	  0.029197	
4.45738	  0.080588	  0.100526	  0.029323	
4.49064	  0.081258	  0.098206	  0.029280	
4.5239	  0.083113	  0.096073	  0.029105	
4.55717	  0.085807	  0.094315	  0.028863	
4.59043	  0.088565	  0.093171	  0.028625	
4.6237	  0.090506	  0.092830	  0.028458	
4.65696	  0.091247	  0.093299	  0.028414	
4.69022	  0.091286	  0.094382	  0.028525	
4.72349	  0.091785	  0.095814	  0.028791	
4.75675	  0.093843	  0.097435	  0.029180	
4.79002	  0.097767	  0.099247	  0.029629	
4.82328	  0.102852	  0.101294	  0.030057	
4.85654	  0.107829	  0.103518	  0.030397	
4.88981	  0.111703	  0.105724	  0.030617	
4.92307	  0.114359	  0.107647	  0.030729	
4.95634	  0.116463	  0.109069	  0.030785	
4.9896	  0.118812	  0.109885	  0.030859	
5.02286	  0.121746	  0.110137	  0.031046	
5.05613	  0.125139	  0.110038	  0.031455	
5.08939	  0.128780	  0.109968	  0.032170	
5.12266	  0.132505	  0.110409	  0.033196	
5.15592	  0.135872	  0.111778	  0.034436	
5.18918	  0.137893	  0.114206	  0.035745	
5.22245	  0.137471	  0.117375	  0.037024	
5.25571	  0.134383	  0.120612	  0.038278	
5.28898	  0.129793	  0.123227	  0.039620	
5.32224	  0.125630	  0.124913	  0.041245	
5.3555	  0.123370	  0.125875	  0.043432	
5.38877	  0.123322	  0.126614	  0.046553	
5.42203	  0.124941	  0.127534	  0.051037	
5.4553	  0.127609	  0.128690	  0.057276	
5.48856	  0.131141	  0.129789	  0.065509	
5.52182	  0.135820	  0.130414	  0.075724	
5.55509	  0.142219	  0.130270	  0.087590	
5.58835	  0.150844	  0.129309	  0.100396	
5.62162	  0.161548	  0.127685	  0.113063	
5.65488	  0.173038	  0.125625	  0.124393	
5.68814	  0.183098	  0.123336	  0.133573	
5.72141	  0.189697	  0.121001	  0.140677	
5.75467	  0.192246	  0.118795	  0.146680	
5.78794	  0.191976	  0.116889	  0.152853	
5.8212	  0.191097	  0.115444	  0.159907	
5.85446	  0.191334	  0.114632	  0.167565	
5.88773	  0.192847	  0.114621	  0.174895	
5.92099	  0.194339	  0.115500	  0.181043	
5.95426	  0.194367	  0.117196	  0.185702	
5.98752	  0.192907	  0.119476	  0.188963	
6.02078	  0.191761	  0.122071	  0.190850	
6.05405	  0.193211	  0.124797	  0.191194	
6.08731	  0.198016	  0.127583	  0.189999	
6.12058	  0.204624	  0.130424	  0.187853	
6.15384	  0.210398	  0.133330	  0.185896	
6.1871	  0.213693	  0.136321	  0.185446	
6.22037	  0.214895	  0.139432	  0.187698	
6.25363	  0.215664	  0.142649	  0.193596	
6.2869	  0.217194	  0.145779	  0.203633	
6.32016	  0.219026	  0.148325	  0.217637	
6.35342	  0.219310	  0.149535	  0.234869	
6.38669	  0.216270	  0.148726	  0.254537	
6.41995	  0.209779	  0.145752	  0.276215	
6.45322	  0.201835	  0.141256	  0.299558	
6.48648	  0.195552	  0.136435	  0.323464	
6.51974	  0.193362	  0.132458	  0.345648	
6.55301	  0.195671	  0.129962	  0.363380	
6.58627	  0.200804	  0.128956	  0.374962	
6.61954	  0.206181	  0.129083	  0.380659	
6.6528	  0.209869	  0.129911	  0.382225	
6.68606	  0.211440	  0.131044	  0.381592	
6.71933	  0.211686	  0.132041	  0.379868	
6.75259	  0.211645	  0.132339	  0.377241	
6.78586	  0.211937	  0.131355	  0.373406	
6.81912	  0.212845	  0.128802	  0.367877	
6.85238	  0.214601	  0.125018	  0.360049	
6.88565	  0.217251	  0.120962	  0.349283	
6.91891	  0.220356	  0.117772	  0.335297	
6.95218	  0.223258	  0.116184	  0.318679	
6.98544	  0.225856	  0.116293	  0.301047	
7.0187	  0.228884	  0.117838	  0.284569	
7.05197	  0.233167	  0.120668	  0.271110	
7.08523	  0.238591	  0.124927	  0.261617	
7.1185	  0.243896	  0.130801	  0.256086	
7.15176	  0.247431	  0.138067	  0.253937	
7.18502	  0.248036	  0.145888	  0.254381	
7.21829	  0.245457	  0.153085	  0.256581	
7.25155	  0.240329	  0.158828	  0.259623	
7.28482	  0.233985	  0.163306	  0.262446	
7.31808	  0.228031	  0.167927	  0.263870	
7.35134	  0.223741	  0.174884	  0.262809	
7.38461	  0.221647	  0.186341	  0.258577	
7.41787	  0.221651	  0.203623	  0.251131	
7.45114	  0.223446	  0.226513	  0.241190	
7.4844	  0.226755	  0.252713	  0.230262	
7.51766	  0.231293	  0.277742	  0.220476	
7.55093	  0.236675	  0.295793	  0.214079	
7.58419	  0.242377	  0.301702	  0.212679	
7.61746	  0.247618	  0.293203	  0.216610	
7.65072	  0.251298	  0.272091	  0.224829	
7.68398	  0.252350	  0.243419	  0.235381	
7.71725	  0.250421	  0.213227	  0.246117	
7.75051	  0.246253	  0.186345	  0.255263	
7.78378	  0.241351	  0.165519	  0.261698	
7.81704	  0.237311	  0.151889	  0.265043	
7.8503	  0.235324	  0.145908	  0.265626	
7.88357	  0.235907	  0.147785	  0.264224	
7.91683	  0.238793	  0.157255	  0.261601	
7.9501	  0.243147	  0.173176	  0.258080	
7.98336	  0.248144	  0.193635	  0.253555	
8.01662	  0.253326	  0.216740	  0.247949	
8.04989	  0.258286	  0.241476	  0.241688	
8.08315	  0.262214	  0.267685	  0.235597	
8.11642	  0.264125	  0.294858	  0.230218	
8.14968	  0.263640	  0.320682	  0.225263	
8.18294	  0.261335	  0.340880	  0.219860	
8.21621	  0.258246	  0.351159	  0.213432	
8.24947	  0.255151	  0.350224	  0.206390	
8.28274	  0.252243	  0.341533	  0.200082	
8.316	  0.249205	  0.332069	  0.196061	
8.34926	  0.245527	  0.328736	  0.195138	
8.38253	  0.241109	  0.334820	  0.196755	
8.41579	  0.236725	  0.348768	  0.199130	
8.44906	  0.233596	  0.365701	  0.200162	
8.48232	  0.232134	  0.380443	  0.198453	
8.51558	  0.231216	  0.390278	  0.193692	
8.54885	  0.229088	  0.395920	  0.186324	
8.58211	  0.225070	  0.400210	  0.177076	
8.61538	  0.220126	  0.405558	  0.166782	
8.64864	  0.215644	  0.412200	  0.156342	
8.6819	  0.211908	  0.418787	  0.146489	
8.71517	  0.208053	  0.424686	  0.137516	
8.74843	  0.203416	  0.431680	  0.129369	
8.7817	  0.198559	  0.443209	  0.122134	
8.81496	  0.194715	  0.461618	  0.116393	
8.84822	  0.192402	  0.485767	  0.113027	
8.88149	  0.190892	  0.511069	  0.112622	
8.91475	  0.189092	  0.531869	  0.115011	
8.94802	  0.186652	  0.543997	  0.119335	
8.98128	  0.184040	  0.545456	  0.124530	
9.01454	  0.181776	  0.535366	  0.129753	
9.04781	  0.180050	  0.513144	  0.134400	
9.08107	  0.179080	  0.479296	  0.137826	
9.11434	  0.179353	  0.436996	  0.139263	
9.1476	  0.181069	  0.392460	  0.138260	
9.18086	  0.183458	  0.353252	  0.135242	
9.21413	  0.185130	  0.325418	  0.131548	
9.24739	  0.185346	  0.311075	  0.128746	
9.28066	  0.184746	  0.307591	  0.127765	
9.31392	  0.184581	  0.308718	  0.128560	
9.34718	  0.185368	  0.307292	  0.130470	
9.38045	  0.186549	  0.298417	  0.132845	
9.41371	  0.187404	  0.281550	  0.135424	
9.44698	  0.187962	  0.260185	  0.138313	
9.48024	  0.188895	  0.239322	  0.141736	
9.5135	  0.190850	  0.222458	  0.145772	
9.54677	  0.194132	  0.210144	  0.150253	
9.58003	  0.198803	  0.200773	  0.154842	
9.6133	  0.204588	  0.192508	  0.159156	
9.64656	  0.210603	  0.184683	  0.162755	
9.67982	  0.215593	  0.177880	  0.165042	
9.71309	  0.218806	  0.173123	  0.165289	
9.74635	  0.220587	  0.171144	  0.162937	
9.77962	  0.221970	  0.172135	  0.158017	
9.81288	  0.223825	  0.175776	  0.151392	
9.84614	  0.226587	  0.181244	  0.144594	
9.87941	  0.230519	  0.187286	  0.139249	
9.91267	  0.235708	  0.192632	  0.136327	
9.94594	  0.241584	  0.196726	  0.135694	
9.9792	  0.246786	  0.200227	  0.136318	
10.0125	  0.249796	  0.204687	  0.136979	
10.0457	  0.249725	  0.211305	  0.136893	
10.079	  0.246473	  0.219542	  0.135764	
10.1123	  0.240454	  0.226787	  0.133378	
10.1455	  0.232438	  0.229717	  0.129343	
10.1788	  0.223440	  0.226568	  0.123361	
10.212	  0.214358	  0.218515	  0.115786	
10.2453	  0.205626	  0.208891	  0.107839	
10.2786	  0.197520	  0.200793	  0.101132	
10.3118	  0.190795	  0.195082	  0.096823	
10.3451	  0.186574	  0.190302	  0.095096	
10.3784	  0.185265	  0.184300	  0.095328	
10.4116	  0.185801	  0.176009	  0.096687	
10.4449	  0.186423	  0.166018	  0.098566	
10.4782	  0.186320	  0.155839	  0.100504	
10.5114	  0.186245	  0.146733	  0.101872	
10.5447	  0.187351	  0.139101	  0.101849	
10.578	  0.189649	  0.132693	  0.099849	
10.6112	  0.191857	  0.127209	  0.096003	
10.6445	  0.192679	  0.122694	  0.091174	
10.6777	  0.191927	  0.119470	  0.086474	
